<mxfile host="app.diagrams.net" agent="Mozilla/5.0 (Windows NT 10.0; Win64; x64) AppleWebKit/537.36 (KHTML, like Gecko) Chrome/130.0.0.0 Safari/537.36" version="24.8.6">
  <diagram name="Page-1" id="6P4cRUNg19xyULZVHrcm">
    <mxGraphModel dx="1403" dy="746" grid="1" gridSize="10" guides="1" tooltips="1" connect="1" arrows="1" fold="1" page="1" pageScale="1" pageWidth="850" pageHeight="1100" math="0" shadow="0">
      <root>
        <mxCell id="0" />
        <mxCell id="1" parent="0" />
        <mxCell id="IccJKijxhRv_FzLwBZtU-58" value="" style="rounded=1;whiteSpace=wrap;html=1;fillColor=#e1d5e7;strokeColor=#9673a6;" vertex="1" parent="1">
          <mxGeometry x="920" y="240" width="200" height="240" as="geometry" />
        </mxCell>
        <mxCell id="IccJKijxhRv_FzLwBZtU-45" value="" style="whiteSpace=wrap;html=1;rounded=1;" vertex="1" parent="1">
          <mxGeometry x="960" y="324" width="110" height="90" as="geometry" />
        </mxCell>
        <mxCell id="IccJKijxhRv_FzLwBZtU-3" value="" style="rounded=1;whiteSpace=wrap;html=1;fillColor=#D5E8D4;" vertex="1" parent="1">
          <mxGeometry x="630" y="240" width="210" height="240" as="geometry" />
        </mxCell>
        <mxCell id="IccJKijxhRv_FzLwBZtU-62" style="edgeStyle=orthogonalEdgeStyle;rounded=0;orthogonalLoop=1;jettySize=auto;html=1;" edge="1" parent="1" source="IccJKijxhRv_FzLwBZtU-1" target="IccJKijxhRv_FzLwBZtU-45">
          <mxGeometry relative="1" as="geometry" />
        </mxCell>
        <mxCell id="IccJKijxhRv_FzLwBZtU-69" value="找活儿" style="edgeLabel;html=1;align=center;verticalAlign=middle;resizable=0;points=[];" vertex="1" connectable="0" parent="IccJKijxhRv_FzLwBZtU-62">
          <mxGeometry x="0.0302" y="1" relative="1" as="geometry">
            <mxPoint as="offset" />
          </mxGeometry>
        </mxCell>
        <mxCell id="IccJKijxhRv_FzLwBZtU-1" value="" style="rounded=1;whiteSpace=wrap;html=1;" vertex="1" parent="1">
          <mxGeometry x="653.5" y="364.5" width="145" height="76.5" as="geometry" />
        </mxCell>
        <mxCell id="IccJKijxhRv_FzLwBZtU-4" value="" style="rounded=1;whiteSpace=wrap;html=1;fillColor=#f8cecc;strokeColor=#b85450;" vertex="1" parent="1">
          <mxGeometry x="290" y="240" width="192" height="240" as="geometry" />
        </mxCell>
        <mxCell id="IccJKijxhRv_FzLwBZtU-30" style="edgeStyle=orthogonalEdgeStyle;rounded=0;orthogonalLoop=1;jettySize=auto;html=1;" edge="1" parent="1" source="IccJKijxhRv_FzLwBZtU-6" target="IccJKijxhRv_FzLwBZtU-19">
          <mxGeometry relative="1" as="geometry" />
        </mxCell>
        <mxCell id="IccJKijxhRv_FzLwBZtU-31" value="批量买车邀约" style="edgeLabel;html=1;align=center;verticalAlign=middle;resizable=0;points=[];" vertex="1" connectable="0" parent="IccJKijxhRv_FzLwBZtU-30">
          <mxGeometry x="0.0118" y="5" relative="1" as="geometry">
            <mxPoint x="-23" y="-15" as="offset" />
          </mxGeometry>
        </mxCell>
        <mxCell id="IccJKijxhRv_FzLwBZtU-32" style="edgeStyle=orthogonalEdgeStyle;rounded=0;orthogonalLoop=1;jettySize=auto;html=1;entryX=0.5;entryY=0;entryDx=0;entryDy=0;" edge="1" parent="1" source="IccJKijxhRv_FzLwBZtU-6" target="IccJKijxhRv_FzLwBZtU-20">
          <mxGeometry relative="1" as="geometry" />
        </mxCell>
        <mxCell id="IccJKijxhRv_FzLwBZtU-33" value="融资邀约" style="edgeLabel;html=1;align=center;verticalAlign=middle;resizable=0;points=[];" vertex="1" connectable="0" parent="IccJKijxhRv_FzLwBZtU-32">
          <mxGeometry x="-0.0145" y="-1" relative="1" as="geometry">
            <mxPoint x="1" y="65" as="offset" />
          </mxGeometry>
        </mxCell>
        <mxCell id="IccJKijxhRv_FzLwBZtU-43" style="edgeStyle=orthogonalEdgeStyle;rounded=0;orthogonalLoop=1;jettySize=auto;html=1;entryX=1;entryY=0.5;entryDx=0;entryDy=0;exitX=0.5;exitY=1;exitDx=0;exitDy=0;dashed=1;strokeColor=#FF3333;" edge="1" parent="1" source="IccJKijxhRv_FzLwBZtU-6" target="IccJKijxhRv_FzLwBZtU-20">
          <mxGeometry relative="1" as="geometry" />
        </mxCell>
        <mxCell id="IccJKijxhRv_FzLwBZtU-44" value="月还" style="edgeLabel;html=1;align=center;verticalAlign=middle;resizable=0;points=[];" vertex="1" connectable="0" parent="IccJKijxhRv_FzLwBZtU-43">
          <mxGeometry x="0.0505" y="1" relative="1" as="geometry">
            <mxPoint as="offset" />
          </mxGeometry>
        </mxCell>
        <mxCell id="IccJKijxhRv_FzLwBZtU-51" style="edgeStyle=orthogonalEdgeStyle;rounded=0;orthogonalLoop=1;jettySize=auto;html=1;entryX=0.5;entryY=0;entryDx=0;entryDy=0;" edge="1" parent="1" source="IccJKijxhRv_FzLwBZtU-6" target="IccJKijxhRv_FzLwBZtU-1">
          <mxGeometry relative="1" as="geometry" />
        </mxCell>
        <mxCell id="IccJKijxhRv_FzLwBZtU-52" value="租车给" style="edgeLabel;html=1;align=center;verticalAlign=middle;resizable=0;points=[];" vertex="1" connectable="0" parent="IccJKijxhRv_FzLwBZtU-51">
          <mxGeometry x="-0.1566" y="-1" relative="1" as="geometry">
            <mxPoint as="offset" />
          </mxGeometry>
        </mxCell>
        <mxCell id="IccJKijxhRv_FzLwBZtU-6" value="持车平台&lt;div&gt;（合资公司）&lt;/div&gt;" style="whiteSpace=wrap;html=1;rounded=1;" vertex="1" parent="1">
          <mxGeometry x="494" y="261.5" width="120" height="60" as="geometry" />
        </mxCell>
        <mxCell id="IccJKijxhRv_FzLwBZtU-56" style="edgeStyle=orthogonalEdgeStyle;rounded=0;orthogonalLoop=1;jettySize=auto;html=1;" edge="1" parent="1" source="IccJKijxhRv_FzLwBZtU-8">
          <mxGeometry relative="1" as="geometry">
            <mxPoint x="540" y="260" as="targetPoint" />
          </mxGeometry>
        </mxCell>
        <mxCell id="IccJKijxhRv_FzLwBZtU-57" value="控股" style="edgeLabel;html=1;align=center;verticalAlign=middle;resizable=0;points=[];" vertex="1" connectable="0" parent="IccJKijxhRv_FzLwBZtU-56">
          <mxGeometry x="-0.0249" y="-2" relative="1" as="geometry">
            <mxPoint as="offset" />
          </mxGeometry>
        </mxCell>
        <mxCell id="IccJKijxhRv_FzLwBZtU-8" value="骐进集团" style="rounded=1;whiteSpace=wrap;html=1;" vertex="1" parent="1">
          <mxGeometry x="480" y="137" width="120" height="60" as="geometry" />
        </mxCell>
        <mxCell id="IccJKijxhRv_FzLwBZtU-13" value="商用车" style="rounded=1;whiteSpace=wrap;html=1;" vertex="1" parent="1">
          <mxGeometry x="738.5" y="394" width="45" height="29" as="geometry" />
        </mxCell>
        <mxCell id="IccJKijxhRv_FzLwBZtU-15" value="司机" style="rounded=1;whiteSpace=wrap;html=1;" vertex="1" parent="1">
          <mxGeometry x="663.5" y="394" width="50" height="29" as="geometry" />
        </mxCell>
        <mxCell id="IccJKijxhRv_FzLwBZtU-17" value="经营租赁" style="text;html=1;align=center;verticalAlign=middle;whiteSpace=wrap;rounded=0;" vertex="1" parent="1">
          <mxGeometry x="714.5" y="235" width="60" height="30" as="geometry" />
        </mxCell>
        <mxCell id="IccJKijxhRv_FzLwBZtU-18" value="融资租赁" style="text;html=1;align=center;verticalAlign=middle;whiteSpace=wrap;rounded=0;" vertex="1" parent="1">
          <mxGeometry x="340" y="235" width="60" height="30" as="geometry" />
        </mxCell>
        <mxCell id="IccJKijxhRv_FzLwBZtU-19" value="主机厂" style="rounded=1;whiteSpace=wrap;html=1;" vertex="1" parent="1">
          <mxGeometry x="293" y="275.5" width="70" height="30" as="geometry" />
        </mxCell>
        <mxCell id="IccJKijxhRv_FzLwBZtU-34" style="edgeStyle=orthogonalEdgeStyle;rounded=0;orthogonalLoop=1;jettySize=auto;html=1;entryX=0.5;entryY=1;entryDx=0;entryDy=0;dashed=1;strokeColor=#FF3333;" edge="1" parent="1" source="IccJKijxhRv_FzLwBZtU-20" target="IccJKijxhRv_FzLwBZtU-19">
          <mxGeometry relative="1" as="geometry" />
        </mxCell>
        <mxCell id="IccJKijxhRv_FzLwBZtU-35" value="放款" style="edgeLabel;html=1;align=center;verticalAlign=middle;resizable=0;points=[];" vertex="1" connectable="0" parent="IccJKijxhRv_FzLwBZtU-34">
          <mxGeometry x="-0.1053" y="-4" relative="1" as="geometry">
            <mxPoint as="offset" />
          </mxGeometry>
        </mxCell>
        <mxCell id="IccJKijxhRv_FzLwBZtU-20" value="融资租赁公司" style="rounded=1;whiteSpace=wrap;html=1;" vertex="1" parent="1">
          <mxGeometry x="378" y="418.5" width="70" height="30" as="geometry" />
        </mxCell>
        <mxCell id="IccJKijxhRv_FzLwBZtU-64" style="edgeStyle=orthogonalEdgeStyle;rounded=0;orthogonalLoop=1;jettySize=auto;html=1;entryX=0.5;entryY=1;entryDx=0;entryDy=0;exitX=0.5;exitY=1;exitDx=0;exitDy=0;strokeColor=#FF3333;dashed=1;" edge="1" parent="1" source="IccJKijxhRv_FzLwBZtU-45" target="IccJKijxhRv_FzLwBZtU-1">
          <mxGeometry relative="1" as="geometry" />
        </mxCell>
        <mxCell id="IccJKijxhRv_FzLwBZtU-65" value="运费" style="edgeLabel;html=1;align=center;verticalAlign=middle;resizable=0;points=[];" vertex="1" connectable="0" parent="IccJKijxhRv_FzLwBZtU-64">
          <mxGeometry x="0.1333" y="-1" relative="1" as="geometry">
            <mxPoint as="offset" />
          </mxGeometry>
        </mxCell>
        <mxCell id="IccJKijxhRv_FzLwBZtU-27" value="货源" style="whiteSpace=wrap;html=1;rounded=1;" vertex="1" parent="1">
          <mxGeometry x="979" y="361" width="74" height="23" as="geometry" />
        </mxCell>
        <mxCell id="IccJKijxhRv_FzLwBZtU-49" value="车队" style="text;html=1;align=center;verticalAlign=middle;whiteSpace=wrap;rounded=0;" vertex="1" parent="1">
          <mxGeometry x="696" y="364" width="60" height="30" as="geometry" />
        </mxCell>
        <mxCell id="IccJKijxhRv_FzLwBZtU-53" style="edgeStyle=orthogonalEdgeStyle;rounded=0;orthogonalLoop=1;jettySize=auto;html=1;strokeColor=#FF3333;dashed=1;" edge="1" parent="1" source="IccJKijxhRv_FzLwBZtU-1">
          <mxGeometry relative="1" as="geometry">
            <mxPoint x="580" y="323" as="targetPoint" />
          </mxGeometry>
        </mxCell>
        <mxCell id="IccJKijxhRv_FzLwBZtU-54" value="还租金" style="edgeLabel;html=1;align=center;verticalAlign=middle;resizable=0;points=[];" vertex="1" connectable="0" parent="IccJKijxhRv_FzLwBZtU-53">
          <mxGeometry x="-0.1572" y="-4" relative="1" as="geometry">
            <mxPoint y="1" as="offset" />
          </mxGeometry>
        </mxCell>
        <mxCell id="IccJKijxhRv_FzLwBZtU-59" value="货车匹配" style="text;html=1;align=center;verticalAlign=middle;whiteSpace=wrap;rounded=0;" vertex="1" parent="1">
          <mxGeometry x="990" y="245.5" width="60" height="30" as="geometry" />
        </mxCell>
        <mxCell id="IccJKijxhRv_FzLwBZtU-60" value="货主" style="text;html=1;align=center;verticalAlign=middle;whiteSpace=wrap;rounded=0;" vertex="1" parent="1">
          <mxGeometry x="985" y="330" width="60" height="22" as="geometry" />
        </mxCell>
        <mxCell id="IccJKijxhRv_FzLwBZtU-72" value="" style="edgeStyle=orthogonalEdgeStyle;rounded=0;orthogonalLoop=1;jettySize=auto;html=1;" edge="1" parent="1" source="IccJKijxhRv_FzLwBZtU-70" target="IccJKijxhRv_FzLwBZtU-71">
          <mxGeometry relative="1" as="geometry" />
        </mxCell>
        <mxCell id="IccJKijxhRv_FzLwBZtU-70" value="融资租赁系统" style="text;html=1;align=center;verticalAlign=middle;whiteSpace=wrap;rounded=0;fontSize=20;" vertex="1" parent="1">
          <mxGeometry x="321" y="520" width="130" height="60" as="geometry" />
        </mxCell>
        <mxCell id="IccJKijxhRv_FzLwBZtU-74" value="" style="edgeStyle=orthogonalEdgeStyle;rounded=0;orthogonalLoop=1;jettySize=auto;html=1;" edge="1" parent="1" source="IccJKijxhRv_FzLwBZtU-71" target="IccJKijxhRv_FzLwBZtU-73">
          <mxGeometry relative="1" as="geometry" />
        </mxCell>
        <mxCell id="IccJKijxhRv_FzLwBZtU-71" value="经营租赁管理系统" style="text;html=1;align=center;verticalAlign=middle;whiteSpace=wrap;rounded=0;fontSize=20;" vertex="1" parent="1">
          <mxGeometry x="568" y="520" width="170" height="60" as="geometry" />
        </mxCell>
        <mxCell id="IccJKijxhRv_FzLwBZtU-76" value="" style="edgeStyle=orthogonalEdgeStyle;rounded=0;orthogonalLoop=1;jettySize=auto;html=1;" edge="1" parent="1" source="IccJKijxhRv_FzLwBZtU-73" target="IccJKijxhRv_FzLwBZtU-75">
          <mxGeometry relative="1" as="geometry" />
        </mxCell>
        <mxCell id="IccJKijxhRv_FzLwBZtU-73" value="车辆（资产）运营管理" style="text;html=1;align=center;verticalAlign=middle;whiteSpace=wrap;rounded=0;fontSize=20;" vertex="1" parent="1">
          <mxGeometry x="798.5" y="520" width="130" height="60" as="geometry" />
        </mxCell>
        <mxCell id="IccJKijxhRv_FzLwBZtU-75" value="车货匹配系统" style="text;html=1;align=center;verticalAlign=middle;whiteSpace=wrap;rounded=0;fontSize=20;" vertex="1" parent="1">
          <mxGeometry x="985.5" y="520" width="130" height="60" as="geometry" />
        </mxCell>
        <mxCell id="IccJKijxhRv_FzLwBZtU-77" value="具备系统能力" style="text;html=1;align=center;verticalAlign=middle;whiteSpace=wrap;rounded=0;" vertex="1" parent="1">
          <mxGeometry x="350" y="570" width="60" height="30" as="geometry" />
        </mxCell>
        <mxCell id="IccJKijxhRv_FzLwBZtU-78" value="初见雏形" style="text;html=1;align=center;verticalAlign=middle;whiteSpace=wrap;rounded=0;" vertex="1" parent="1">
          <mxGeometry x="614" y="570" width="60" height="30" as="geometry" />
        </mxCell>
        <mxCell id="IccJKijxhRv_FzLwBZtU-80" value="规划中" style="text;html=1;align=center;verticalAlign=middle;whiteSpace=wrap;rounded=0;" vertex="1" parent="1">
          <mxGeometry x="820" y="570" width="60" height="30" as="geometry" />
        </mxCell>
        <mxCell id="IccJKijxhRv_FzLwBZtU-84" value="规划中" style="text;html=1;align=center;verticalAlign=middle;whiteSpace=wrap;rounded=0;" vertex="1" parent="1">
          <mxGeometry x="1010" y="570" width="60" height="30" as="geometry" />
        </mxCell>
      </root>
    </mxGraphModel>
  </diagram>
</mxfile>
